<?xml version="1.0" standalone="no"?>
<!DOCTYPE svg PUBLIC "-//W3C//DTD SVG 20010904//EN"
 "http://www.w3.org/TR/2001/REC-SVG-20010904/DTD/svg10.dtd">
<svg version="1.0" xmlns="http://www.w3.org/2000/svg"
 width="300.000000pt" height="300.000000pt" viewBox="0 0 300.000000 300.000000"
 preserveAspectRatio="xMidYMid meet">
<metadata>
Created by potrace 1.11, written by Peter Selinger 2001-2013
</metadata>
<g transform="translate(0.000000,300.000000) scale(0.100000,-0.100000)"
fill="#000000" stroke="none">
<path d="M1700 2960 c-1 -3 -3 -31 -5 -62 -2 -31 -6 -92 -10 -135 -4 -43 -8
-96 -10 -118 -1 -22 -6 -65 -9 -95 -4 -30 -9 -72 -12 -92 -10 -89 -21 -164
-29 -208 -3 -14 -7 -41 -9 -60 -9 -72 -59 -310 -92 -445 -128 -509 -303 -840
-517 -976 l-59 -37 44 -16 c98 -38 334 -54 443 -31 110 23 179 54 235 107 67
63 150 226 175 344 2 10 10 51 18 89 18 83 24 119 32 205 4 36 9 81 11 100 5
44 4 371 -1 425 -2 22 -6 76 -10 120 -4 44 -8 91 -10 105 -2 14 -6 48 -10 75
-6 48 -9 70 -20 125 -3 14 -8 41 -11 60 -3 19 -12 60 -19 90 -8 30 -16 69 -19
85 -11 63 -102 360 -106 345z"/>
<path d="M1870 2568 c5 -18 14 -52 20 -75 l11 -43 66 0 67 0 -27 28 c-15 15
-27 30 -27 33 0 2 18 3 39 1 42 -4 40 -1 32 -74 -1 -5 -19 -8 -41 -8 -36 0
-40 -3 -40 -24 0 -13 -5 -26 -12 -28 -9 -3 -8 -13 4 -39 17 -34 17 -34 -7 -37
-29 -4 -29 -4 -14 -89 l11 -63 160 0 160 0 -16 25 c-21 32 -20 35 8 35 21 0
24 -5 24 -40 l1 -40 -104 0 c-99 0 -104 -1 -100 -20 2 -12 -2 -23 -11 -27 -13
-5 -13 -8 1 -29 25 -38 19 -44 -44 -44 l-59 0 5 -52 c3 -29 6 -62 7 -73 3 -19
12 -20 225 -23 217 -2 222 -2 211 17 -14 27 -13 31 10 31 17 0 20 -7 20 -40
l0 -40 -124 0 -124 0 2 -24 c2 -14 -3 -27 -11 -30 -12 -5 -12 -9 1 -28 9 -12
16 -26 16 -30 0 -5 -49 -8 -108 -8 l-108 0 -2 -75 -2 -75 261 0 261 0 -4 30
c-4 23 -1 30 13 30 18 0 31 -50 18 -71 -4 -8 -70 -12 -210 -13 l-204 -1 -3
-28 c-2 -15 -8 -25 -13 -22 -14 10 -11 -13 7 -40 9 -14 12 -25 8 -26 -5 0 -39
0 -76 0 l-67 1 -7 -38 c-3 -20 -10 -54 -14 -74 -10 -46 -27 -44 292 -40 l246
3 11 29 c15 43 31 37 31 -12 l0 -43 -255 1 c-140 0 -256 -2 -256 -5 -1 -3 -3
-16 -4 -27 -1 -12 -5 -27 -9 -33 -4 -7 0 -23 8 -36 18 -28 21 -26 -58 -29
l-50 -1 -27 -75 -26 -75 233 0 233 0 33 33 c49 47 70 43 66 -10 l-3 -43 -255
0 -255 0 -4 -25 c-1 -14 -7 -28 -13 -31 -5 -4 -1 -20 11 -39 l20 -33 20 34
c18 28 19 35 6 37 -15 4 -21 21 -7 23 4 1 120 2 257 3 l250 1 3 72 c3 72 3 73
-23 73 -25 0 -25 1 -10 24 9 13 12 27 8 29 -5 3 -78 6 -163 5 -85 0 -170 1
-188 1 l-34 1 21 35 c17 29 18 35 5 35 -8 0 -13 4 -10 9 3 4 110 9 238 9 128
0 241 1 251 1 15 1 17 12 17 76 0 41 -3 74 -7 74 -32 -5 -43 3 -43 30 l0 29
-181 0 c-100 1 -184 3 -186 6 -3 3 2 17 11 30 19 30 20 37 5 33 -6 -1 -13 3
-16 10 -3 9 41 12 179 12 101 0 195 0 211 0 27 1 27 2 27 70 l0 70 -37 3 c-30
2 -38 8 -43 28 -6 25 -7 25 -133 28 -70 1 -127 5 -127 8 0 2 8 16 17 30 16 25
16 27 -3 38 -15 9 7 12 111 16 l130 5 -2 63 c-1 35 -4 66 -7 69 -3 4 -23 6
-45 6 -34 0 -41 4 -55 34 l-16 33 -126 0 -126 0 20 34 20 34 -21 8 c-14 5 17
9 86 11 l107 4 -1 62 c-1 34 -5 67 -10 73 -5 6 -28 9 -53 7 -40 -3 -47 0 -69
29 -25 31 -26 32 -111 31 l-85 0 20 38 c16 33 17 39 4 39 -8 0 -15 5 -15 10 0
6 19 10 43 10 l43 0 -1 70 c0 78 6 73 -86 71 -49 0 -62 4 -94 29 -21 17 -39
30 -41 30 -1 0 1 -15 6 -32z"/>
<path d="M920 2440 c-1 -25 -3 -52 -4 -60 -2 -8 -7 -57 -10 -108 -4 -51 -9
-99 -11 -105 -2 -7 -6 -36 -9 -65 -13 -119 -44 -282 -82 -437 -80 -324 -205
-559 -342 -646 l-44 -28 54 -16 c66 -20 206 -27 278 -14 69 13 143 53 174 93
157 207 186 726 66 1206 -16 63 -38 140 -49 170 l-20 55 -1 -45z"/>
<path d="M1777 786 c-9 -17 -28 -51 -43 -75 l-26 -43 33 7 c107 21 379 121
379 138 0 3 -74 5 -164 5 l-164 -1 -15 -31z"/>
<path d="M664 537 c17 -12 18 -33 18 -242 0 -160 -3 -230 -11 -233 -26 -9 -8
-17 39 -18 40 0 48 2 39 13 -13 14 -20 225 -8 221 21 -8 288 -215 289 -223 0
-9 150 -16 150 -8 0 2 -15 9 -32 16 -18 8 -102 68 -186 135 l-152 121 81 63
c45 35 93 72 108 83 14 11 33 26 41 34 8 8 33 22 55 32 l40 19 -52 0 c-36 0
-53 -4 -54 -12 0 -11 -278 -228 -290 -228 -4 0 -4 148 0 203 0 10 11 22 24 27
16 6 4 9 -47 9 -60 1 -67 -1 -52 -12z"/>
<path d="M1458 357 c3 -10 8 -14 11 -9 3 6 17 12 31 14 21 3 19 5 -11 9 -31 4
-35 2 -31 -14z"/>
<path d="M1620 370 c-52 -3 -85 -7 -73 -8 21 -2 22 -5 21 -149 -1 -82 -4 -152
-9 -158 -4 -6 5 -11 26 -12 32 -2 32 -1 26 30 -3 18 -6 88 -6 157 l0 125 58 0
c40 0 57 3 57 12 0 7 -1 12 -2 11 -2 -1 -46 -5 -98 -8z"/>
<path d="M1810 361 c-47 -25 -75 -58 -90 -104 -27 -85 17 -181 96 -205 32 -10
137 -9 188 1 10 2 22 11 28 20 11 21 4 21 -25 3 -12 -8 -43 -18 -69 -21 -100
-15 -188 65 -190 173 -3 117 120 178 225 113 34 -21 35 -21 30 -2 -11 42 -130
55 -193 22z"/>
<path d="M2069 365 c5 -5 8 -80 7 -166 l-1 -157 32 1 c19 1 29 5 25 12 -4 5
-7 43 -8 82 l-2 73 87 0 88 0 -3 -75 c-1 -41 -5 -78 -8 -83 -2 -4 7 -8 22 -7
l27 0 -1 164 -1 165 -34 2 c-20 2 -28 0 -20 -5 9 -6 14 -32 15 -77 l1 -69 -87
-3 -88 -3 4 78 3 79 -33 0 c-21 0 -30 -4 -25 -11z"/>
<path d="M1244 223 c0 -82 -2 -154 -5 -162 -3 -11 8 -15 48 -16 29 -1 50 2 47
7 -4 5 -8 7 -11 4 -3 -3 -13 -1 -22 4 -14 7 -17 23 -17 77 1 76 -1 74 84 62
37 -5 42 -4 42 14 0 14 -4 17 -12 11 -7 -5 -20 -9 -28 -8 -8 1 -32 2 -52 3
l-37 1 1 63 c0 87 0 87 -20 87 -17 0 -18 -12 -18 -147z"/>
<path d="M1348 363 c46 -3 62 -8 62 -18 0 -8 4 -15 9 -15 5 0 8 8 7 18 -2 14
-14 17 -72 18 l-69 1 63 -4z"/>
<path d="M1430 70 c0 -5 -11 -10 -25 -10 -14 0 -25 -3 -25 -8 0 -4 14 -7 30
-7 22 -1 30 4 30 17 0 10 -2 18 -5 18 -3 0 -5 -4 -5 -10z"/>
</g>
</svg>
