<svg id="Layer_1" data-name="Layer 1" xmlns="http://www.w3.org/2000/svg" viewBox="0 0 400 100"><defs><style>.cls-1{fill:#263779;}.cls-2{fill:#fdb913;}.cls-3{fill:#adafb2;}</style></defs><title>logo-top-bar</title><path class="cls-1" d="M363.49.47C362,34.74,352.74,88.49,332,97.26c5.42,3.1,19.91,4.3,27.76-.53C374.32,87.8,377,39.6,363.49.47Z"/><path class="cls-2" d="M330.93,21.48c-1,22.84-7.17,58.67-21,64.52,3.61,2.07,13.27,2.87,18.51-.35C338.14,79.69,339.94,47.56,330.93,21.48Z"/><path class="cls-2" d="M377.23,22.71a69.67,69.67,0,0,0-6.79-6.38q.76,3.27,1.43,6.38Z"/><path class="cls-2" d="M374.23,35.59h12.93c-1.41-2.21-2.9-4.35-4.45-6.38h-9.56Q373.77,32.49,374.23,35.59Z"/><path class="cls-2" d="M375.7,48.48h18.07c-.86-2.16-1.83-4.3-2.9-6.39H375.1Q375.49,45.39,375.7,48.48Z"/><path class="cls-2" d="M375.93,61.36h21.31a52.08,52.08,0,0,0-1.3-6.39H376Q376.06,58.29,375.93,61.36Z"/><path class="cls-2" d="M375.43,67.85q-.39,3.32-1,6.39h22.33a32.41,32.41,0,0,0,.83-6.39Z"/><path class="cls-2" d="M370.56,87.12h19.26a28.12,28.12,0,0,0,4.54-6.39H372.81Q371.82,84,370.56,87.12Z"/><path class="cls-2" d="M364,100a61.43,61.43,0,0,0,17.5-6.39H367.57C366.45,95.78,365.25,97.9,364,100Z"/><path class="cls-3" d="M379.58,25.23V18.79h-6.3c.51.47,1,1,1.54,1.46h3.35v3.52h-3.4v2.28h-1l1.76,3.16,1.75-3.16h-1.06v-.82Z"/><path class="cls-3" d="M389.44,38.11V31.67h-4.92c.34.48.68,1,1,1.46H388v3.52h-8.34v2.29h-1l1.76,3.15,1.75-3.15H381.1v-.83Z"/><path class="cls-3" d="M396.48,51.09V44.65h-4.36l.66,1.46h2.29v3.52H384.62v2.28h-1l1.76,3.16,1.75-3.16H386v-.82Z"/><path class="cls-3" d="M400,63.87V57.43h-3.46c.1.49.2,1,.29,1.46h1.76v3.52H381.1V64.7h-1l1.76,3.15,1.75-3.15h-1.06v-.83Z"/><path class="cls-3" d="M400,76.75V70.31h-2.59c-.05.49-.11,1-.19,1.46h1.37v3.52H377.23v2.29h-1l1.75,3.15,1.76-3.15h-1.06v-.83Z"/><path class="cls-3" d="M395.48,89.64V83.19h-2.56c-.33.5-.67,1-1,1.47h2.18v3.52H372.35v2.28h-1l1.76,3.15,1.75-3.15h-1.06v-.82Z"/><path class="cls-2" d="M0,0H25.75V1Q21.54.82,19.83,2.4t-1.71,8.32V49.05L71.51,4.48Q73.1,3.25,73.1,2.23C73.1,1.42,71.9,1,69.5,1V0H88.9V1q-7.32.21-14.28,6L28.09,45.56,74.5,84.75a1.17,1.17,0,0,0,.19.14.39.39,0,0,1,.18.2.44.44,0,0,0,.24.07A134.62,134.62,0,0,0,89.3,95.83a18.23,18.23,0,0,0,9.43,3.09v1H68.16v-1c2.72,0,4.09-.34,4.09-1s-1.12-1.83-3.36-3.73L18.12,51.29V88.35c0,4.33.28,7,.83,8a4.86,4.86,0,0,0,2.19,2.14,9.92,9.92,0,0,0,4.49.44v1H0v-1c3.42.17,5.56-.4,6.44-1.73S7.75,93,7.75,88.75V11.25q0-6.64-1.31-8.61C5.56,1.33,3.42.79,0,1Z"/><path class="cls-1" d="M104.93,35.51v-.75h36.85v9h-.6c-.8-3.34-1.47-5.29-2-5.88s-1.88-.89-4-.89H115.83V66.22h18c1.77,0,2.9-.19,3.38-.56a2,2,0,0,0,.76-1.61h.59V70.2h-.59a2.28,2.28,0,0,0-.94-1.72,5.72,5.72,0,0,0-2.73-.45H115.83V88.16a20.51,20.51,0,0,0,.75,6.57A3.78,3.78,0,0,0,119,97.25a17.65,17.65,0,0,0,5,.52h10.33a31.37,31.37,0,0,0,6.3-.38,4.58,4.58,0,0,0,2.32-1.49c.64-.75,1.13-2.38,1.47-4.91h.6v8.94H104.93v-.66a6.21,6.21,0,0,0,3.08-.86c.7-.49,1-1.74,1-3.78V42a15.85,15.85,0,0,0-.55-5C108.13,36,106.94,35.51,104.93,35.51Z"/><path class="cls-1" d="M195.9,32.5l-2.78,7.88h-.6a8.84,8.84,0,0,0,.16-1.9,1.28,1.28,0,0,0-.65-1.31,5.63,5.63,0,0,0-2.09-.29H174.65V92.64a14.91,14.91,0,0,0,.5,4.71,2.59,2.59,0,0,0,1.35,1.59,8.43,8.43,0,0,0,2.77.33v.66H163.39v-.66c2-.14,3.24-.58,3.74-1.28s.76-2.18.76-4.42V36.88H153.24a9.12,9.12,0,0,0-2.9.29c-.45.19-.68.67-.68,1.44a7.91,7.91,0,0,0,.32,1.77h-.6L146.6,32.5h.59a3.79,3.79,0,0,0,1.42,1.92,8.14,8.14,0,0,0,3,.34h38.9a11.39,11.39,0,0,0,3.32-.34,2.59,2.59,0,0,0,1.49-1.92Z"/><path class="cls-1" d="M246.54,37l2.19,6.91h-.59q-8.5-9.43-20-9.43-12,0-19.35,7.92a27.08,27.08,0,0,0-7.38,19.16,47.72,47.72,0,0,0,3.28,16A33.76,33.76,0,0,0,215,92.4a26.13,26.13,0,0,0,17.15,5.81,36.79,36.79,0,0,0,13-2.36q6.35-2.37,9.45-6.35l.51.18-4.09,7q-10,2.39-12.92,2.83a55.51,55.51,0,0,1-7.94.44q-18.42,0-26.36-9.49a34.28,34.28,0,0,1-7.94-22.72,38.31,38.31,0,0,1,4.08-17.19,31.29,31.29,0,0,1,11.76-13,35.38,35.38,0,0,1,26.08-3.76,42.77,42.77,0,0,1,6,2.06l2.63,1.1A.45.45,0,0,1,246.54,37Z"/><path class="cls-1" d="M298.8,67.41H266.61v25A21,21,0,0,0,266.9,97,3.23,3.23,0,0,0,268,98.6a4.53,4.53,0,0,0,2.84.67v.66H255.7v-.66q4.14.32,4.14-4.46V42.41q0-4.47-.66-5.66c-.43-.8-1.59-1.24-3.48-1.33v-.66h15.16v.66a5.36,5.36,0,0,0-3.38,1.06q-.87.89-.87,3.63V65.6H298.8V42.28a15.84,15.84,0,0,0-.62-5.42c-.41-1-1.56-1.44-3.44-1.44v-.66h15v.66a5.66,5.66,0,0,0-2.64.47,2.37,2.37,0,0,0-1.18,1.44,22.25,22.25,0,0,0-.31,5v50a21,21,0,0,0,.31,4.79A3.25,3.25,0,0,0,307,98.65a4.5,4.5,0,0,0,2.71.62v.66h-15v-.66c1.62,0,2.7-.37,3.25-1.11s.81-2.72.81-6Z"/></svg>