<?xml version="1.0" standalone="no"?>
<!DOCTYPE svg PUBLIC "-//W3C//DTD SVG 20010904//EN"
 "http://www.w3.org/TR/2001/REC-SVG-20010904/DTD/svg10.dtd">
<svg version="1.0" xmlns="http://www.w3.org/2000/svg"
 width="280.000000pt" height="280.000000pt" viewBox="0 0 280.000000 280.000000"
 preserveAspectRatio="xMidYMid meet">
<metadata>
Created by potrace 1.11, written by Peter Selinger 2001-2013
</metadata>
<g transform="translate(0.000000,280.000000) scale(0.100000,-0.100000)"
fill="#000000" stroke="none">
<path d="M1642 2753 c0 -52 -13 -227 -27 -363 -3 -25 -7 -70 -10 -100 -5 -51
-30 -240 -41 -320 -6 -37 -41 -240 -48 -276 -2 -12 -7 -38 -10 -58 -13 -82
-80 -359 -121 -500 -159 -550 -361 -891 -605 -1025 l-51 -28 38 -16 c117 -46
263 -65 433 -55 119 7 181 20 285 59 72 27 174 123 222 210 80 142 136 333
168 569 3 25 8 56 10 70 21 125 22 646 0 790 -2 14 -6 54 -10 90 -6 59 -39
287 -49 335 -2 11 -11 56 -20 100 -35 171 -137 528 -156 548 -4 5 -8 -9 -8
-30z"/>
<path d="M1850 2347 c0 -7 29 -136 36 -159 5 -15 18 -18 85 -18 l80 0 -36 35
c-19 20 -35 37 -35 38 0 2 21 3 47 2 l48 -1 2 -47 c2 -51 0 -53 -79 -47 -25 1
-28 -2 -28 -29 0 -16 -6 -36 -14 -44 -12 -12 -11 -18 10 -43 30 -38 30 -41 -7
-42 -17 0 -32 -2 -34 -4 -2 -2 4 -43 13 -93 l17 -90 175 2 c96 1 183 2 193 3
17 0 17 2 -2 29 -27 38 -27 41 9 41 29 0 30 -1 30 -49 l0 -48 -107 -1 c-154 0
-144 2 -139 -27 3 -16 -1 -28 -11 -34 -14 -8 -14 -13 6 -45 26 -41 31 -39 -72
-38 l-58 1 7 -87 c3 -48 8 -90 10 -94 2 -3 124 -6 270 -7 288 0 272 -3 250 50
-5 11 0 15 19 15 18 0 25 -6 26 -20 2 -28 -2 -70 -6 -74 -2 -2 -69 -4 -149 -4
l-145 -1 -3 -31 c-2 -18 -8 -30 -15 -29 -18 4 -16 -7 7 -42 11 -16 20 -33 20
-36 0 -4 -53 -7 -117 -7 -65 0 -125 0 -134 -1 -14 -1 -16 -16 -17 -93 l-1 -93
282 2 c155 1 298 2 318 2 37 1 37 1 29 36 -7 32 -6 35 16 35 22 0 24 -4 24
-48 l0 -49 -247 -1 c-137 0 -251 -1 -255 -1 -5 -1 -8 -14 -8 -30 0 -18 -6 -31
-15 -33 -13 -3 -12 -9 5 -40 11 -21 20 -39 20 -41 0 -2 -35 -3 -77 -2 -109 2
-109 2 -117 -58 -4 -29 -9 -69 -12 -89 l-6 -38 330 0 c354 0 342 -2 342 50 0
18 23 34 34 23 3 -4 6 -27 6 -52 l0 -46 -312 0 -313 0 0 -30 c0 -16 -6 -35
-14 -41 -11 -8 -9 -16 8 -45 l21 -34 -76 -5 -75 -5 -26 -75 c-14 -41 -29 -79
-34 -84 -5 -6 -9 -12 -9 -16 0 -3 129 -5 288 -5 l287 -1 34 38 c23 26 42 38
60 38 26 0 27 -2 26 -47 l-1 -48 -314 -5 -315 -5 0 -27 c1 -20 -4 -28 -17 -28
-16 0 -15 -4 7 -44 14 -25 22 -47 17 -49 -4 -2 -40 -3 -79 -2 -40 1 -73 -1
-73 -4 0 -4 -23 -44 -50 -90 -28 -46 -50 -85 -50 -87 0 -5 219 56 290 81 87
32 197 81 203 92 3 5 -43 8 -101 7 -59 0 -111 2 -115 4 -4 2 1 19 13 38 24 42
25 54 5 54 -8 0 -15 5 -15 10 0 11 9 11 373 12 l257 0 0 89 c0 66 -3 89 -12
88 -44 -5 -49 0 -28 33 l20 33 -240 5 -240 5 25 38 c20 29 22 37 10 37 -8 0
-15 6 -15 14 0 11 53 13 310 12 l310 -1 0 91 c0 98 -5 109 -51 97 -21 -6 -22
-4 -16 30 3 23 1 37 -6 39 -7 3 -110 4 -229 3 -120 0 -218 2 -218 5 0 3 9 19
20 37 18 30 18 33 2 42 -9 5 -14 13 -10 16 4 4 120 7 258 7 l250 0 0 90 0 90
-27 -2 c-62 -4 -69 -1 -79 36 l-9 37 -152 -1 c-165 -2 -164 -2 -126 53 17 26
17 39 -2 31 -9 -3 -15 0 -15 9 0 13 25 15 150 15 l151 0 -3 87 -3 87 -54 2
c-30 0 -56 5 -58 10 -2 5 -12 23 -22 40 l-19 31 -142 0 c-77 1 -143 3 -146 6
-3 2 5 21 17 41 l21 36 -22 0 c-13 0 -20 5 -18 12 4 10 38 13 124 13 l119 0 3
88 3 87 -71 0 c-69 0 -70 0 -92 35 -13 19 -30 35 -38 36 -8 0 -57 1 -108 1
l-93 0 21 35 c22 37 26 58 10 48 -5 -3 -10 1 -10 9 0 12 11 16 49 16 l48 0 1
90 c1 50 -2 90 -6 91 -4 1 -46 2 -94 3 -71 2 -92 6 -110 22 -36 31 -58 47 -58
41z"/>
<path d="M700 2175 c-1 -22 -3 -47 -5 -55 -1 -9 -6 -61 -9 -115 -4 -55 -9
-107 -11 -115 -2 -8 -6 -42 -10 -75 -3 -33 -8 -71 -10 -85 -2 -14 -9 -61 -15
-105 -7 -44 -13 -87 -15 -95 -2 -8 -9 -44 -16 -80 -86 -451 -228 -799 -389
-957 -28 -28 -67 -59 -86 -69 -19 -10 -34 -22 -34 -26 0 -4 26 -15 58 -25 61
-19 284 -25 352 -10 96 22 174 76 224 155 52 83 104 255 120 397 3 28 8 70 11
95 7 57 8 373 1 420 -3 19 -8 64 -11 100 -6 75 -10 97 -36 239 -23 122 -59
266 -93 371 -24 72 -25 73 -26 35z"/>
</g>
</svg>
